# xmcd CD database file
#
# Track frame offsets:
#	150
#	29747
#	51770
#	72395
#	97863
#	118495
#	133565
#	163565
#	193339
#	238878
#	268837
#
# Disc length: 3817 seconds
#
# Revision: 1
# Processed by: cddbd v1.5.1PL2 Copyright (c) Steve Scherf et al.
# Submitted via: jetAudio 5
#
DISCID=aa0ee70b
DTITLE=Van Morrison - Pure (Bootleg)
DYEAR=1900
DGENRE=
TTITLE0=It's Not The Twilight Zone
TTITLE1=I Like It Like That
TTITLE2=T for Texas
TTITLE3=Bulbs
TTITLE4=Buffy Flow
TTITLE5=Heathrow Shuffle
TTITLE6=Naked In The Jungle
TTITLE7=Street Choir
TTITLE8=Pure (instrumental)
TTITLE9=Since I Fell For You
TTITLE10=Send in the Clowns
EXTD=
EXTT0=
EXTT1=
EXTT2=
EXTT3=
EXTT4=
EXTT5=
EXTT6=
EXTT7=
EXTT8=
EXTT9=
EXTT10=
PLAYORDER=
